<!DOCTYPE svg PUBLIC "-//W3C//DTD SVG 1.1//EN" "http://www.w3.org/Graphics/SVG/1.1/DTD/svg11.dtd">
<!-- Uploaded to: SVG Repo, www.svgrepo.com, Transformed by: SVG Repo Mixer Tools -->
<svg fill="#6da4df" height="800px" width="800px" version="1.1" id="Capa_1" xmlns="http://www.w3.org/2000/svg" xmlns:xlink="http://www.w3.org/1999/xlink" viewBox="0 0 490 490" xml:space="preserve" stroke="#6da4df">
<g id="SVGRepo_bgCarrier" stroke-width="0"/>
<g id="SVGRepo_tracerCarrier" stroke-linecap="round" stroke-linejoin="round"/>
<g id="SVGRepo_iconCarrier"> <g> <path d="M362.396,424.156h-17.865v-53.843H145.469v53.843h-17.865c-13.335,0-24.245,10.91-24.245,24.245 c0,13.335,10.91,24.245,24.245,24.245h234.792c13.335,0,24.245-10.91,24.245-24.245 C386.641,435.066,375.731,424.156,362.396,424.156z M160.781,385.626h168.438v38.53H160.781V385.626z M362.396,457.333H127.604 c-4.842,0-8.932-4.091-8.932-8.932c0-4.842,4.09-8.932,8.932-8.932h234.792c4.842,0,8.932,4.091,8.932,8.932 C371.328,453.242,367.237,457.333,362.396,457.333z"/> <path d="M459.375,17.354H30.625C13.781,17.354,0,31.135,0,47.979v260.313c0,16.844,13.781,30.625,30.625,30.625h428.75 c16.844,0,30.625-13.781,30.625-30.625V47.979C490,31.135,476.219,17.354,459.375,17.354z M474.687,308.292 c0,8.443-6.869,15.313-15.312,15.313H30.625c-8.444,0-15.313-6.869-15.313-15.313V47.979c0-8.443,6.869-15.313,15.313-15.313 h428.75c8.443,0,15.312,6.869,15.312,15.313V308.292z"/> <path d="M390.887,62.433c-19.485,0-35.335,15.851-35.335,35.335c0,9.592,3.853,18.301,10.087,24.674l-68.385,79.216 c-5.576-3.686-12.249-5.839-19.416-5.839c-5.057,0-9.865,1.076-14.219,2.997l-29.193-29.805c1.782-4.216,2.769-8.846,2.769-13.702 c0-19.485-15.851-35.335-35.32-35.335c-19.484,0-35.335,15.851-35.335,35.335c0,6.087,1.55,11.821,4.275,16.827l-52.901,46.361 c-5.449-3.438-11.894-5.438-18.8-5.438c-19.484,0-35.335,15.851-35.335,35.32c0,19.484,15.851,35.336,35.335,35.336 s35.335-15.851,35.335-35.336c0-7.029-2.074-13.581-5.632-19.091l52.041-45.608c5.878,4.362,13.15,6.948,21.017,6.948 c9.013,0,17.247-3.402,23.495-8.982l25.81,26.35c-5.397,6.204-8.676,14.296-8.676,23.141c0,19.485,15.851,35.335,35.335,35.335 c19.47,0,35.32-15.851,35.32-35.335c0-6.744-1.905-13.053-5.2-18.42l70.646-81.836c3.828,1.424,7.965,2.205,12.283,2.205 c19.484,0,35.335-15.851,35.335-35.32C426.223,78.284,410.372,62.433,390.887,62.433z M99.112,268.404 c-11.036,0-20.023-8.987-20.023-20.023c0-11.036,8.987-20.008,20.023-20.008c11.036,0,20.023,8.972,20.023,20.008 C119.135,259.417,110.148,268.404,99.112,268.404z M201.874,175.318c-11.036,0-20.023-8.972-20.023-20.008 c0-11.036,8.987-20.023,20.023-20.023c11.036,0,20.008,8.987,20.008,20.023C221.882,166.346,212.909,175.318,201.874,175.318z M277.838,251.163c-11.036,0-20.023-8.987-20.023-20.023c0-11.036,8.987-20.008,20.023-20.008c11.036,0,20.008,8.972,20.008,20.008 C297.846,242.176,288.874,251.163,277.838,251.163z M390.887,117.777c-11.036,0-20.023-8.972-20.023-20.008 c0-11.036,8.987-20.023,20.023-20.023c11.036,0,20.023,8.987,20.023,20.023C410.91,108.804,401.923,117.777,390.887,117.777z"/> </g> </g>
</svg>